/* XPM */
static char *_d36ca23f008453bee5b11e04c1bcb7549SZQktY0OjASwpm[] = {
/* columns rows colors chars-per-pixel */
"64 64 209 2 ",
"   c #771F10",
".  c #793015",
"X  c #514612",
"o  c #544915",
"O  c #594D17",
"+  c #5E521C",
"@  c #6B5C1C",
"#  c #6E601D",
"$  c #71621F",
"%  c #685C21",
"&  c #756622",
"*  c #776824",
"=  c #7A6B24",
"-  c #7D6E28",
";  c #786723",
":  c #7F7029",
">  c #9D1E14",
",  c #971F13",
"<  c #85190F",
"1  c #A11F14",
"2  c #8E2514",
"3  c #8A2B16",
"4  c #802714",
"5  c #942515",
"6  c #9D2215",
"7  c #9A2917",
"8  c #932E18",
"9  c #9C2D18",
"0  c #932A16",
"q  c #843A1A",
"w  c #8B3519",
"e  c #943219",
"r  c #9B321A",
"t  c #933C1C",
"y  c #9C3D1D",
"u  c #A42115",
"i  c #AB2216",
"p  c #A22817",
"a  c #AC2618",
"s  c #A32B18",
"d  c #AC2A1A",
"f  c #B02317",
"g  c #B42518",
"h  c #BB261A",
"j  c #B32A1A",
"k  c #BC2A1B",
"l  c #A3321A",
"z  c #AB331B",
"x  c #A33B1D",
"c  c #AB3B1E",
"v  c #B5351D",
"b  c #BB341E",
"n  c #B43A1E",
"m  c #BA3A1F",
"M  c #B43F21",
"N  c #C1271B",
"B  c #C42A1C",
"V  c #CB2B1D",
"C  c #D32C1F",
"Z  c #D92E1F",
"A  c #C4331E",
"S  c #CD301F",
"D  c #D0311F",
"F  c #DA2E20",
"G  c #D52F20",
"H  c #DE3021",
"J  c #D03520",
"K  c #C03720",
"L  c #E03021",
"P  c #8D491E",
"I  c #93441D",
"U  c #9D431E",
"Y  c #96491E",
"T  c #A2411E",
"R  c #AB401F",
"E  c #8F4E21",
"W  c #9C4D22",
"Q  c #994A21",
"!  c #8C5721",
"~  c #8C5922",
"^  c #9E5324",
"/  c #945D25",
"(  c #9C5B25",
")  c #965723",
"_  c #A34320",
"`  c #A94621",
"'  c #A44B22",
"]  c #AA4B23",
"[  c #B34220",
"{  c #A25324",
"}  c #A45B28",
"|  c #8D6125",
" . c #806F26",
".. c #886525",
"X. c #946426",
"o. c #9A6127",
"O. c #926827",
"+. c #966728",
"@. c #9A662A",
"#. c #936B29",
"$. c #9B6D2B",
"%. c #827127",
"&. c #847329",
"*. c #88772A",
"=. c #87782B",
"-. c #8D7A2C",
";. c #94742B",
":. c #9A742C",
">. c #927D2E",
",. c #9A7B2E",
"<. c #9D7E30",
"1. c #A4642B",
"2. c #A66C2E",
"3. c #A96D2E",
"4. c #AD622B",
"5. c #A4722F",
"6. c #A9722F",
"7. c #A67430",
"8. c #A97430",
"9. c #A57E32",
"0. c #AA7C33",
"q. c #93812E",
"w. c #968A2C",
"e. c #968430",
"r. c #9A8531",
"t. c #9D8A34",
"y. c #958A2E",
"u. c #AB8335",
"i. c #A18D35",
"p. c #AA8B37",
"a. c #AC8D38",
"s. c #A68233",
"d. c #B18638",
"f. c #B48B39",
"g. c #A59236",
"h. c #A99436",
"j. c #AB9A37",
"k. c #A79338",
"l. c #AA9539",
"z. c #AD993B",
"x. c #B4953C",
"c. c #B29D3D",
"v. c #B9973B",
"b. c #B5A23D",
"n. c #B8A63D",
"m. c #BBAB3D",
"M. c #B0A437",
"N. c #BFB13C",
"B. c #C1AF3F",
"V. c #C3B43E",
"C. c #C8B93F",
"Z. c #B69F40",
"A. c #B89F41",
"S. c #B6A241",
"D. c #BAA642",
"F. c #BDAA42",
"G. c #C1AE43",
"H. c #C2AF48",
"J. c #C5B342",
"K. c #C8B743",
"L. c #CBBB44",
"P. c #C7B14A",
"I. c #C9B34A",
"U. c #CEBA4B",
"Y. c #C7B842",
"T. c #D2BD4D",
"R. c #D0BF46",
"E. c #D4C446",
"W. c #D5CA46",
"Q. c #D5C449",
"!. c #DAC54F",
"~. c #D7C949",
"^. c #DDCE4D",
"/. c #D9CA47",
"(. c #DED04D",
"). c #DED04A",
"_. c #DAD145",
"`. c #DDC753",
"'. c #DDC752",
"]. c #DEC752",
"[. c #DBC551",
"{. c #DEC852",
"}. c #CFC344",
"|. c #E2D34D",
" X c #E5D84B",
".X c #E9D94E",
"XX c #E9D74D",
"oX c #E2CD53",
"OX c #E5D351",
"+X c #EAD753",
"@X c #EBD853",
"#X c #E9DA53",
"$X c #ECD853",
"%X c #ECD953",
"&X c #EDDA52",
"*X c #EEDD53",
"=X c #EEE04E",
"-X c #F6E64F",
";X c #F7EB4F",
":X c #F3E650",
">X c #F5E650",
",X c #F1E251",
"<X c #FAED51",
"1X c #F6EC51",
"2X c #FDF352",
"3X c #FCF352",
"4X c #FDF152",
"5X c #FCF452",
"6X c #FFF854",
/* pixels */
"-.D.I.F.P.F.D.S.S.F.b.c.c.c.c.c.c.b.c.c.c.c.c.b.S.A.c.c.c.c.l.-.- b.U.J.F.P.G.D.S.S.S.S.c.c.c.b.b.A.c.c.c.c.c.c.c.c.c.c.c.c.c.c.",
"w.L.OX!.[.T.I.I.I.I.I.P.P.P.P.P.I.I.P.P.P.P.P.I.I.I.P.P.P.P.c.q.=.J.|.{.!.T.U.I.I.I.I.I.P.P.P.I.I.I.I.P.P.P.P.P.P.P.P.P.P.I.G.S.",
"y.W.>X*XOXoX{.'.'.'.{.{.'.'.{.'.'.'.'.'.'.'.'.'.'.'.'.'.{.!.G.t.r.}.,X,X&XoX{.'.'.{.{.'.'.'.'.'.'.'.'.'.{.{.{.'.'.'.'.'.'.'.T.G.",
"w.W.<X>X&X@X+X@X@X@X&X&X+X&X&X&X@X&X&X&X&X&X&X&X&X&X&X&X&XOXL.g.g.W.1X;X,X&X+X@X@X&X&X+X&X@X@X@X&X&X@X@X&X&X&X&X@X&X&X&X&X+X!.K.",
"w.W.3X;X-X:X:X:X:X:X>X-X-X-X-X:X:X-X-X-X-X-X-X-X-X-X-X-X>X=XE.l.g.W.1X<X<X:X:X:X:X>X-X-X-X>X:X>X-X-X>X:X>X-X-X-X-X-X-X-X-X>X.XT.",
"y._.6X5X3X3X3X3X3X3X3X3X3X3X3X3X3X3X3X3X3X3X3X3X3X3X3X3X5X1X~.j.k.W.1X5X5X3X3X3X3X3X3X3X3X3X3X3X3X3X3X3X3X3X3X3X3X3X3X3X3X5X,XQ.",
"q.L.*X@X@X@X@X@X@X(.^.^.^.).^.(.(.^.^.^.^.^.^.).(.(.^./.~.L.b.e.-.G.|.@X@X@X@X@X@XOX|.^.^.).^.(.(.^.^.^.^.(.).^.(.(.^.^.^.~.J.b.",
"=.S.U.I.I.I.I.I.P.F.D.D.D.D.D.D.D.D.D.D.D.D.D.D.D.D.D.b.c.l.r.%.- z.I.I.I.I.I.I.P.H.F.D.D.D.D.D.D.D.D.D.D.D.D.D.D.D.D.D.n.c.i.r.",
"*.j.S.z.z.z.z.z.z.z.l.l.j.z.l.l.l.l.z.l.l.z.l.l.l.l.z.l.l.g.e.- = z.F.c.z.z.c.c.z.j.z.z.j.l.j.l.l.l.z.z.l.l.l.l.l.l.j.l.j.l.i.q.",
"=.k.c.l.l.l.l.l.l.l.l.l.l.l.l.k.k.l.k.k.l.l.l.l.l.l.l.l.l.g.e.- = z.D.l.l.l.l.l.l.l.l.l.l.l.l.l.l.l.l.l.l.l.l.l.l.l.l.l.l.l.i.q.",
"=.k.S.c.b.D.m.n.z.i.g.l.k.i.t.t.r.t.t.t.t.i.t.i.g.c.F.b.j.h.r.- ; z.D.l.c.n.b.l.g.i.i.t.t.i.t.t.i.t.t.i.g.l.l.D.F.F.D.b.g.g.i.q.",
"=.k.Z.b.L.E.L.B.l.t.i.k.t.;.O.X.X.#.#.#.#.O...,.i.J.~.D.z.h.r. .; k.S.z.m.~.J.l.t.>.#.O.O.+.O.#.+.O.O.;.r.k.z.L.~.~.L.m.r.t.i.q.",
"*.k.z.b./.~.K.b.i.t.i.i.:.Y U x x T T T T t q $.h.L.).c.l.g.e.%.- g.c.z.C.).J.i.,...I y T T T y y y y P #.i.z.Y./.W.J.b.>.r.i.q.",
"- i.z.c.E.F.g.r.t.k.t.:.' k V V V V V V G N 7 2.v.Y.L.r.t.g.r. .= i.z.z.V.L.j.q.>.~ z B C V V V V B g 7 P ;.h.c.n.n.z.t.-.r.i.q.",
"= t.z.c.U.c.t.r.g.k.,.{ m H C V V V V C H C p 3.v.Y.L.e.t.g.r.- ; t.z.c.J.L.h.q.,.~ v C L V V V V V V i 3 ! z.l.z.c.z.i.-.r.i.q.",
"= t.z.z.F.i.t.i.i.k.p.1.M F C h a f f g V V s 3.v.L.Y.e.t.i.e.- ; i.c.z.V.C.h.>.,.~ v C C g f i i g B u t $.z.g.i.k.k.e.=.r.i.q.",
"= t.z.l.k.r.i.g.t.i.h.u.4.K V h i 1 > u h h 7 3.v.L.J.e.t.g.e.- ; i.z.z.V.Y.g.>.>.~ v C B u > > 1 u f l 1.p.l.i.t.i.i.q.=.r.i.q.",
"& r.z.g.r.t.i.i.i.r.i.j.a.{ v B h 1 1 > i u 7 2.x.J.J.e.t.g.r. .; t.z.z.G.J.g.>.,.~ v V N u 1 1 u i l } s.k.i.t.t.i.i.t.q.t.i.q.",
"+ =.g.l.g.g.r.,.<.i.t.i.h.0.{ z i i u > 1 > 5 2.x.J.J.e.t.g.r. .; i.z.h.V.J.g.>.,.) v V N u 1 1 6 9 ^ 0.h.t.r.i.<.,.r.g.i.g.t.-.",
"o = t.l.g.e.( ' o.r.t.i.i.h.0.{ 9 > > 6 6 , 2 2.x.J.B.e.t.g.r. .; t.z.x.V.J.g.>.,.! v V N i u > 7 ^ 0.h.i.i.i.r.( W / r.g.l.e.; ",
"X ; t.k.r.X.[ A M o.e.t.i.g.h.9.^ 9 6 u u > 5 2.x.J.B.e.t.i.r.%.; t.z.x.J.J.g.>.,.~ v V B f 1 7 W 8.l.i.t.g.t.o.[ v x X.h.z.e.; ",
"X ; t.i.#.U A Z V c o.e.t.t.g.l.s.{ 9 i f i 7 2.x.G.G.e.t.i.r.%.; t.z.z.F.J.g.>.,.~ v C V a s { 8.z.i.t.t.r.+.R S V d Q x.c.e.= ",
"X ; t.i.X.c V C C C c o.r.i.r.g.z.0.W s h g 7 2.x.H.F.e.t.g.e.- ; t.z.z.F.G.g.>.>.~ v C C s { 0.z.g.t.t.r.@.y B C V a y x.S.e.= ",
"X ; t.i.+.c V V h V b ` $.t.i.i.g.p.8.y i i 7 2.x.G.F.e.t.g.r.- ; t.z.z.F.F.g.>.>.~ v V k y 8.h.k.i.i.t.$.` B B N h a y x.b.e.- ",
"X ; r.i.+.c V B i g B b ' :.i.i.i.g.a.1.x 6 5 2.x.D.S.e.t.g.r. .; t.z.l.D.D.i.q.,.~ l i c 3.p.g.i.i.t.:.{ b V h i i p y x.b.e.; ",
"X ; r.i.+.c V V i u h B b { :.t.i.i.g.u.1.y 2 2.x.S.z.>.t.g.r. .; t.z.l.c.b.t.>.,.! e x 1.a.g.i.i.t.:.{ b B h u 1 1 6 t v.S.e.; ",
"X ; t.i.#.T A V g u u h B b { :.i.i.t.l.a.1.t 6.x.c.g.=.r.g.r. .; t.z.l.c.z.e.=.,.~ Y 1.a.k.t.t.t.,.{ b B g 1 u u 1 6 U x.b.r.- ",
"O - t.i.,.^ b V B u 6 u g B v ^ ;.t.i.i.h.u.2.u.z.z.i.=.r.i.r. .; t.z.l.z.l.q.-.e.;.5.u.h.i.i.t.:.{ b V g 1 u f f i s } x.z.r.%.",
"% -.g.k.h.0.] h N i u u i N B v ^ ,.g.t.i.h.x.z.g.i.t.q.t.g.r. .; t.c.l.k.i.r.r.i.l.x.h.i.t.i.,.( m V B i 1 f N N d W 0.l.l.t.=.",
"* r.l.l.l.z.6.` d f i u u h V V m ( ,.t.t.g.z.h.g.h.g.-.r.i.e. .; t.z.g.t.t.g.l.g.k.l.k.i.i.,.( n C H C N h B V j ` 6.h.l.l.i.>.",
"= t.z.l.c.z.l.2.y u i u u f V C V c ) ,.i.g.g.j.n.m.h.%.q.i.e. .; t.z.g.e.w.j.n.b.g.g.g.i.r./ x k C Z C V C V h _ 2.l.j.z.z.i.q.",
"= t.z.c.J.b.z.a.2.8 u u u i g k h s w ;.i.g.i.m.L.K.j.=.>.i.r. .; i.c.i.q.w.j.J.K.m.g.g.i.+.y s h k h h h h j x 1.a.c.c.c.j.t.>.",
"* t.l.b.^.E.m.z.l.8._ 9 e e r r r e w :.i.g.m.K.G.Y.L.t.-.q.e. .; t.z.i.q.M.J.F.c.D.j.g.e.| t e r r r r 8 3 w 2.p.z.c.n.t.i.i.q.",
"- t.l.b.)./.J.c.z.x.0.8.8.8.8.8.8.8.7.a.r.t.V.V.J.^. Xb.%.=.e. .; t.z.i.g.E.|.J.t.r.q.q.r.r.6.8.8.8.8.8.7.5.7.p.z.b.m.b.q.r.i.q.",
"= t.z.b.~.Y.F.b.z.l.z.z.z.x.z.z.z.z.z.z.e.w.V.m.Y..X=Xm.; &.e. .; t.z.g.z. X=XK.q.- %.=.r.k.z.z.z.x.z.z.z.z.z.l.n.J.V.l.-.e.i.q.",
"* t.z.b.E.D.c.z.l.k.k.g.i.g.i.i.i.i.i.g.q.q.N.b.J.|.XXm.; %.q. .; t.z.g.z.|..XJ.-.; - =.e.i.i.i.g.g.i.g.i.i.g.l.K.R.D.t.-.r.i.q.",
"= t.z.b.E.m.l.t.r.k.t.e.e.t.r.r.r.r.r.r.-.q.n.c.m.Q.!.b.; %.q. .; t.z.i.l.Q.'.D.-.; - -.q.r.q.r.r.e.r.r.r.r.t.c.L.L.c.i.-.r.i.q.",
"= t.z.c.L.b.i.r.i.g.t.r.e.e.r.r.e.r.r.i.q.q.z.g.z.G.I.g.$ %.e.- ; t.z.r.r.H.J.j.*.; - =.e.t.t.r.e.r.r.r.e.e.e.k.m.G.b.i.-.r.i.q.",
"= t.z.c.C.z.t.i.g.r.#./ / / o.X.X.| ..i.r.-.t.e.q.t.k.-.$ *.e.- ; t.l.e.=.i.g.q.= ; - =.q.,.+.X./ / X.X./ / X.r.h.c.c.r.=.r.i.q.",
"= t.z.j.m.g.i.i.r.X.U x c c c c x e q s.g.-.*.*.%. .- & ; >.e. .; t.z.e.- - - ; ; &.%.=.,.~ t y c c c c c c c o.<.g.k.e.=.r.i.q.",
"* t.z.g.g.i.g.r.+.x B C C C C C B i e s.j.q.= %.%.= @ @  .r.r.- ; t.z.t.: # # ; &.*.%.>.e.~ e d B C C C C C D c o.r.g.t.>.r.i.q.",
"* t.z.l.g.k.t.@.x S V V V V C C k l 1.a.z.i.-.= *.-.%.# =.t.r.- ; t.z.i.*.- -.q.*.; -.t.k.i.( r g Z L C V V C V T +.i.k.g.k.i.q.",
"* i.c.l.k.t.:.` B V h g g g h g z { p.h.g.i.r.*.%.- ; @ -.i.r.%.; i.c.i.-.; ; %.%.&.r.i.i.k.s.( x B G V h i f B b ] :.i.k.l.i.q.",
"= t.z.k.i.,.{ b V g u u u f i l { 0.h.i.i.i.e.q.-.-.=.*.r.g.r.%.; t.z.g.t.-.=.=.-.,.r.i.i.i.h.s.} z N V g > 1 g B b { :.g.l.t.q.",
"& e.k.g.,.( n B h u 6 u i a l { 0.l.i.t.t.,.X.<.i.b.m.c.l.k.r. .; t.j.l.c.m.b.g.r.;.#.,.i.t.i.z.s.{ z B N f u u h B m ( l.z.t.-.",
"+ %.i.i.X.x B B i > 1 i a s { u.z.i.t.i.r.~ q 2.v.E. XJ.z.g.r. .= t.z.z.K. XY.l.e.~ I ( ,.i.t.i.h.u.( l h V g u i h B _ v.b.r.*.",
"o = t.i.X.c V B i > i i s } u.h.i.t.i.e.o.y 0 2.v.L.~.g.i.g.r. .; t.z.z.J.~.b.e.>.~ l x ( r.i.t.g.h.s.{ z N V g i g h T v.b.e.- ",
"X ; t.i.O.c V V i i i s ' 9.p.i.t.t.r.o.[ k 6 3.x.K.Y.r.t.g.r. .; t.z.z.V.L.j.>.,.~ z B [ +.r.i.i.i.h.7.' d B B f i a U v.b.e.= ",
"X ; t.i.O.c V V g f p _ 2.h.i.i.t.t.;.` S V p 3.v.Y.J.e.t.i.r. .; t.z.z.J.L.h.>.>.~ v C J ` :.t.i.t.g.l.6._ a B g 1 6 y x.b.e.= ",
"X ; t.i.X.c B B i u x 2.a.g.i.i.t.:.{ A C B p 1.c.L.J.e.t.g.r. .; t.z.z.J.K.h.>.>.~ b F H b { :.t.i.i.l.a.2.y j g i 6 t x.b.e.= ",
"X ; t.i.#.x j i 6 7 1.a.l.t.i.i.,.^ b B N g 7 1.v.K.J.e.t.g.r. .; t.z.z.V.J.g.>.,.~ b C C V b { :.t.t.i.l.a.3.x a i 7 I x.b.e.= ",
"X ; r.k.i.2.y 7 y 8.p.g.i.t.t.:.{ v B f i 1 7 2.x.J.B.e.t.g.r.- ; t.z.z.F.J.g.q.,.~ v C V h B b ` $.t.t.i.g.p.6._ 9 y 2.l.z.r.= ",
"X ; r.l.l.h.@.Q 2.l.l.i.t.t.:.' b B h i u > 2 2.v.J.B.e.t.i.e.- ; t.c.z.G.J.g.q.,.~ v V B i h h v W :.r.t.i.g.l.2.^ 1.p.l.l.e.= ",
"X ; r.l.j.z.i.s.a.k.i.i.t.:.^ b V k i u u > 5 2.v.J.B.e.t.g.r. .; i.c.z.G.J.g.>.,.~ v V N u i f f l W :.t.t.t.l.p.u.p.l.l.l.e.= ",
"O - t.z.b.z.c.c.l.i.t.t.<.^ n V B i 1 > u > 5 2.x.J.J.e.t.g.r. .; t.z.z.m.J.g.>.,.~ v V N 1 > > u a 9 ) ,.t.r.i.l.c.z.l.z.l.r.: ",
"% -.g.b.~.G.z.g.i.r.t.e.( m S V f u > > u > 2 2.x.H.F.e.t.g.r. .; t.z.z.F.J.g.q.,.~ v C V u > > 1 u u y o.r.i.t.i.l.c.b.z.l.t.=.",
"* r.l.b.^.Q.F.l.i.i.,.X.T V H V g u 1 1 i 1 7 3.x.G.F.e.t.g.r. .; t.z.z.F.G.g.q.,.~ v F F h u > > 1 i s t | l.g.i.j.m.n.r.r.r.>.",
"= t.z.b.~.E.G.c.k.k.e./ y h C V h u 1 1 u > 2 2.x.F.S.e.t.g.r. .; t.z.z.D.D.i.q.,.~ v C C g u > 1 1 i 6 w / z.l.z.m.V.z.-.r.i.>.",
"= t.z.c.K.F.S.c.z.k.k.<.W 6 g h a > 6 6 , <   @.x.D.c.q.t.g.r.- ; t.z.l.S.S.t.>.>.~ l h h 6 > > 6 6 6 3 E 9.z.z.G.K.D.i.-.i.h.>.",
"= t.z.z.S.l.g.z.c.i.z.z.:.t 9 9 9 7 8 8 3 4 . $.x.S.z.>.r.g.r.- ; i.c.l.S.c.r.-.>.~ e 9 r 8 7 7 8 8 8 P :.l.l.b.Y.J.z.t.=.q.r.-.",
"- t.z.g.e.-.=.-.>.-.i.l.h.a.f.f.d.d.f.f.f.u.a.c.b.c.i.- q.g.r.- * t.z.z.A.k.=.%.>.;.s.f.f.f.f.d.f.f.d.f.l.l.l.c.g.e.-.%.$ q.l.,.",
"= r.g.r.-.*.*.*.*.=.e.t.t.k.j.l.k.l.z.l.l.l.l.h.g.i.e.%.>.r.>.- * t.h.i.i.r.*.*.>.q.g.l.k.l.l.l.l.l.l.k.t.r.t.t.e.-.=.%.= >.t.>.",
"* e.r.-.-.-.-.-.-.>.-.>.>.>.>.>.>.>.>.>.>.>.>.>.>.>.-.-.-.>.*.= * r.i.>.>.>.-.-.>.>.>.>.-.>.>.>.>.-.q.>.-.-.>.>.>.-.-.-.-.-.-.=.",
"* -.q.-.-.-.-.-.-.-.-.-.-.-.-.-.-.-.-.-.-.-.-.-.-.=.=.-.-.-.*.= * r.t.-.-.-.-.-.-.-.-.-.-.-.-.-.-.-.-.-.-.-.>.>.-.=.=.-.-.-.=.*."
};
