/* XPM */
static char *be54cb3af02d47d9b31204c7000b8390fBgAq38FK87RjSSc[] = {
/* columns rows colors chars-per-pixel */
"64 64 133 2 ",
"   c #30633F",
".  c #316540",
"X  c #356C44",
"o  c #377146",
"O  c #3A7546",
"+  c #3D7B47",
"@  c #3A764B",
"#  c #3D7B4C",
"$  c #3E7E50",
"%  c #407D48",
"&  c #3F804C",
"*  c #3F8051",
"=  c #438647",
"-  c #42844C",
";  c #458B4D",
":  c #488D4D",
">  c #4A934F",
",  c #4C984E",
"<  c #418552",
"1  c #418453",
"2  c #428452",
"3  c #428552",
"4  c #428652",
"5  c #438652",
"6  c #438752",
"7  c #428551",
"8  c #418352",
"9  c #438850",
"0  c #438852",
"q  c #448851",
"w  c #448951",
"e  c #458B50",
"r  c #448A51",
"t  c #458A51",
"y  c #458B51",
"u  c #448852",
"i  c #448952",
"p  c #458C51",
"a  c #468C51",
"s  c #468D51",
"d  c #478D51",
"f  c #478E50",
"g  c #478F50",
"h  c #478E51",
"j  c #458B51",
"k  c #488950",
"l  c #498B50",
"z  c #488F50",
"x  c #4B8F52",
"c  c #4D8F52",
"v  c #4C8F53",
"b  c #498F51",
"n  c #489050",
"m  c #489150",
"M  c #499150",
"N  c #499250",
"B  c #4D9152",
"V  c #4D9451",
"C  c #4E9552",
"Z  c #4F9653",
"A  c #4D9154",
"S  c #4F9554",
"D  c #499150",
"F  c #4F9850",
"G  c #509555",
"H  c #519754",
"J  c #519655",
"K  c #519953",
"L  c #519A53",
"P  c #529F51",
"I  c #539F52",
"U  c #549D52",
"Y  c #519954",
"T  c #519855",
"R  c #529955",
"E  c #519B54",
"W  c #529857",
"Q  c #529A56",
"!  c #549855",
"~  c #559B57",
"^  c #549F55",
"/  c #559C56",
"(  c #549D57",
")  c #539C53",
"_  c #569D58",
"`  c #53A053",
"'  c #54A152",
"]  c #54A053",
"[  c #54A054",
"{  c #54A055",
"}  c #55A055",
"|  c #55A254",
" . c #55A156",
".. c #56A056",
"X. c #56A157",
"o. c #57A157",
"O. c #57A356",
"+. c #55A155",
"@. c #58A357",
"#. c #58A456",
"$. c #5CA957",
"%. c #5CAA57",
"&. c #5DAA57",
"*. c #5BA956",
"=. c #56A158",
"-. c #57A159",
";. c #57A259",
":. c #56A158",
">. c #58A25A",
",. c #58A25B",
"<. c #58A458",
"1. c #59A458",
"2. c #59A459",
"3. c #5AA459",
"4. c #5AA559",
"5. c #5AA55A",
"6. c #5BA55B",
"7. c #5BA65B",
"8. c #5CA65C",
"9. c #5AA45A",
"0. c #5DA958",
"q. c #65AD58",
"w. c #65AD58",
"e. c #63B15D",
"r. c #67B460",
"t. c #AED64F",
"y. c #AED64F",
"u. c #E5759B",
"i. c #E5759B",
"p. c #FFABC7",
"a. c #FFABC7",
"s. c white",
"d. c white",
/* pixels */
"# # # # # # X X X X X X l @ @ @ @ @ # & 6 6 6 6 6 + # # # $ 1 1 6 6 8 8 6 6 8 * * * 8 6 6 0 u u u u 8 8 8 8 ,.,.8 8 8 8 8 8 8 8 ",
"# # # # # # @ @ @ @ @ @ X @ # # # # # & 8 6 6 6 6 + + + # $ 1 1 6 6 8 8 6 6 o Q * * * 6 u u u u u u u 6 8 8 8 8 ,.8 8 8 8 8 8 8 ",
"8 # # # # # # @ @ @ @ # # # # # # # # * 6 u u 6 # + # # # # 8 u M u u 8 6 # K Q & * * u s u u u u u u g [ 8 8 8 u u 8 [ u 8 8 8 ",
"8 ,.,.,.-.-.-.l @ @ + # # # # # # # Q ( q.q.-.u # + + # # $ u z z z u u u # K q.q.* - 6 u u u u s [ [ [ s u u u u u s [ u u 8 8 ",
"8 X X O # # O o X & # # # - - - 6 6 o O q.q.# 6 # + + + # # u.s s s u s M # Q q.q.$ 8 6 -.u M M ] z M M M M M s u u s u [ u 8 8 ",
"8 8 8 s q.q.s 6 & & & @ @ 6 6 u s u u u 0 u u 8 # @ @ @ # @ @ u s u M s s ; ( - - - 6 u [ M M z ` M > M M M M q.q.u u u [ u 8 8 ",
"8 8 8 s q.q.s 6 6 6 6 @ @ 6 u u 0 u.u.s s -.6 6 # # # & * @ @ u s 6 s s s [ O 6 6 6 6 M P > M M [ s s > M M M q.q.8 8 u [ 6 8 8 ",
"8 8 8 s s s s s s 6 6 6 6 6 6 6 u.p.p.u.s s -.6 $ # & & * * s s M M s q.q.[ - 6 6 6 M > P : : @ @ s u s s s s q.q.6 6 s s 6 6 8 ",
"8 8 8 0 s s - - # + o o 3.8 6 6 u.p.p.u.& & -.-.$ $ S # & & u > > [ s q.q.s s 6 6 6 ; : : > > @ @ - 6 s s s @.@.u 6 s s s s 6 8 ",
"8 8 8 0 u.0 [ [ [ s u u + 6 8 6 6 u.u.s s s # -.6 $ S & & & s > > = s 6 s s O 3.6 6 s ` > > > - - - - 6 s s s u 3.6 s s s s 6 8 ",
"8 8 8 0 6 0 [ = = M s s s s u u 0 8 8 8 [ u u u u 6 G * o 6 s s s - 8 8 8 X 8.8.8 8 ,.u # u 8 u.u.- - u 3.- - - - 8 t.[ M M 6 8 ",
"8 8.8.3.,.,.$.U > > s q.q.s u u u u 3.@ @ 3.3.u u u -.1 X 8 u s s + X 6 0 O 3.u 8 o -.o o # u.p.p.u.( [ - # # # # t.s.t.> > s 8 ",
"8 X X O O O O : = u s q.q.u u u + [ + @ @ + + u u u [ + X 8 u u u u O O -.@ @ z z -.-.-.Q & u.p.p.u.0 s Q B c # # # t.> ] M M 8 ",
"8 8 8 8 6 6 u + u u u 0 0 u u u + [ s s s [ - s s u u [ + 8 8 u u 8 6 -.-.@ @ z z z 0 6 G # # u.u.* s u ; Z c z # # M M $.M M ,.",
"8 8 8 * # - - + - u u 0 0 u u u # [ s s s $.- s s s u [ M 8 8 8 t.8 6 0 u 3.- z z z 0 8 G # # 8 3.6 u z = - # # # # M M $.M M ,.",
"8 8 * # # # # # # # # @ # 8 u u # [ s s s [ U s s s M ] M s 8 t.s.t.6 6 u 3.- M > > s 6 G X X u s s z M ; = X @ @ # s M [ M s ,.",
"8 8 * # # @ # # # # # @ @ @ @ @ X -.s s + + [ [ s u [ M M s 8 8 t.3.u s 6 u M M > M + + X # - s s # P ` ` : # @ @ # - s [ s -.8 ",
"8 $ # # @ @ t.- - # + @ @ @ @ @ @ X Z - - # O 3.8 u [ M s s 6 0 u O u u u 8 0 s s u u [ O * s s [ # ; ` M - # @ @ # - [ [ u 0 8 ",
"$ $ $ # # t.s.t.+ - - & @ @ @ @ @ X - @ ! Q X 8 6 6 3.s - 6 6 0 u O u u u 6 6 u u u.3.6 X 6 6 s $.[ O [ s & # @ @ @ - Z -.0 6 8 ",
"$ $ $ $ 8 8 t.= : - + - - @ @ # @ @ X @ c A $ 8 u u @.q.q.6 6 0 u O O 6 ; - - - $ X ! X o 8 8 8 ( -.-.q.q.6 & @ @ @ - Z u u 6 8 ",
"$ $ $ 8 8 - > P ; ; + - - # # - @ @ & @ # # $ u u # U q.q.6 6 s s z - - P - ; : ; P ! ! Q 8 8 8 ( 6 -.q.q.e.3.@ # # Z - u u u 8 ",
"8 $ $ 8 8 - > = ; > u u u * - ; @ @ - - & G X u u - s [ + 6 s s s s s [ Q ; : ; ; : ; : Q 8 8 8 ( 6 6 -.6 3.3.! # # - 6 3.u u 8.",
"8 8 8 6 6 u > = > > s s u 1 u s @ @ : : : ( X u - = M [ 6 8 u u u u # M M u s > > s s s [ s 8 8 8 6 6 6 o 6 8 8 * * 6 u 3.u u 8.",
"# # # 6 6 6 M ; > > u u u u 6 s = [ s : : ( + u + u u 3.6 * ; ; ; # M M M s > > > > s s s s u 8 8 8 8 8 X X X 8 8 6 u u 3.u u ,.",
"# # # # 1 1 o M s q.q.u + + X u - [ = g g + u u + u u u 6 * # - - # M M = & : > P P [ > ; s [ [ 8 X 3.3.3.-.,.X 6 0 u u 3.u [ * ",
"# # # # 1 1 o 1 u q.q.+ u 8 8 8 s ; P > M + M M M M M s s - + - - 6 6 s s u M , , , , , > > M [ $.- - 3.u u u 8 6 0 0 3.3.u 6 * ",
"# # # # 1 1 o X X # X X # # 6 0 u O @.u @.@.# u.u.M > s u 6 - + - - - - - u u > > u , , , > > P @.] + 3.u 6 - # & - Z 3.3.0 * * ",
"8 8 6 1 6 1 1 $ # X . # # # # - u # + u u ( i.p.p.u.u > M 6 - - - - - - - u u q.q.u M > @ @ , > > ] [ u 6 - - # # # B q.q.8 * * ",
"8 8 8 @ @ u u - + O + - # # # - - # - - - - u.p.p.u.; > M M 6 - - - - - - u u q.q.u u.> @ @ > > P P @.w.0.Q # t.# # ; q.q.# # * ",
"8 8 u @ @ u s - + + + - : - ; - q.q.- - - - - u.u.+ > M M M M # + 6 6 6 - - + + u u u u [ M M > : > > [ 6 # t.s.t.@ @ @ @ # # # ",
"8 8 u u u [ [ - # + + = = # - : q.q.; - & # # - + + 8 > > s = - > > X $ @ @ @ X @ @ @ # G - : s ; ` [ -.u $ # t.- - # @ @ o @ @ ",
"8 8 u u [ [ s - [ [ u z : - ; > : : : - - & + @ @ u z > > : ; > > ; > - & # + + o O # - - - : : s s M M M z M M M : ; # @ @ @ @ ",
"8 6 6 s [ + u.u [ s s > + + = : > : = > : ; = @ @ u M M > > > > > ; > - O O + - : ; - % - - ) ( s M M M M [ ] > > > : ; & @ @ @ ",
"O 6 6 6 6 X X 6 u u u + M u > > = > ; > M s = M M s s > > > : : > > ; - - - + + - & % - - - - ( U U [ M M M > > > > M u - - # # ",
"O 6 6 6 - O o o + ; + + s M s > : ; > M s u = M M s z z s s : = : t.M : ; ; - = ; - - - - - u 3.w.= = M M M > > M s [ u M M u * ",
"O 6 6 - - O # @ @ + + s = M s u # + s u u u # M M s z s s u u M t.s.t.z z z > > M M - - - u u u -.[ [ [ q.q.> > s s [ M M M s u ",
"6 O + + : : # @ @ X ; s M = u u # + u u u.u + - @ # - - - u u u + t.u u z z > > M s 6 s s u 8 8 8.8.@.@.q.q.- @ @ [ [ M M s u u ",
"6 6 6 B + & # # + X X s M u # u u u u 8 ,.# @ @ @ # # - q.q.u + O + u u u u + q.q.6 6 6 0 0 0 8 X 8 8 6 s s s @ @ 8 0 & s u u u ",
"8 6 6 Q O : : + X X X O o + u - - - X X c z @ @ @ @ @ # q.q.+ + u = s u u u u q.q.6 6 0 u u u u + @.[ 3.M M = = [ 8 6 # u u u u ",
"o O -.-.( 3.# - K Q ; 8 6 6 o # @ @ # X X X X @ @ @ @ # # X X 8 u u + u u u u 0 o o s s M z s u s s s s = M M M [ ,.-.+ u u u u ",
"6 + -.# ( X s ; ( + + + X X X   @ @ c c c X O - @ @ @ - - u u 8 u u - - X X 8 6 u s s s = = z z s s s s + M : : # X o B - - - * ",
"O u u u u O s u u u u u O 8 # # O B - - - + O - - u u u u u u u $ - - # # # o O - - ; ; = M z z @ @ s s + - - - - # # A # # u.# ",
"O u u u -.- s u u u u z - t.; - O Z B B - ; = = M + + u u u u 6 # # # # @ @ # O - - - + ; > > M @ @ - u + + - - - # # A X X # # ",
"O u u u -.q.q.u u u z M t.s.t.> ; - u u : M = M M M u + + u 6 - # X # # @ @ # u.u.+ + - ; ; ; - G ,.8.[ K O - - - - + + - # # # ",
"u X X X w.q.q.8 u u s s [ t.> > ; P [ [ $.M = M [ M u u u + + X   X X # @ @ u.p.p.u.@ # # & - - # X # = = : O - B > > q.q.- - 8 ",
"u u u 3.X # O 8 8 8 [ [ [ s : > : > u u w.[ M M s u u u u 8 $ $   X X X $ $ u.p.p.u.@ o @ & - # X # s > ; : - + + K u q.q.u u 6 ",
"u u u 3.O u 6 8 6 s u [ s s M > > M + X ( r.8 8 8 8 8 X X 6 6 6 * o 8 o X u u u.u.# @ o @ & - - O - > > ; > ; + ] [ M + s u u 6 ",
"X + 3.3.O u 6 6 s s u Z - : ; M M s 8 + O = s u 8 X X O 0 0 6 0 u 6 : q.q.u s M s u 8 # - - - - - 0 t.> = > > M *.*.*.: M s 6 6 ",
"G O ( # # % ,.o # + + + # o + + K G @.@ @ ; [ @.u 8 0 0 0 0 O # + > > q.q.s M M s u s s - - s 6 + t.s.t.; M 0 M = = ; P s s s 6 ",
"G # # # z # X o 6 u - - O # # # : G ; @ @ - - s u 6 0 0 0 O O u > > > > > s M = u s M s - s : ; - - t.- O 6 8 8 u s s U s s s 6 ",
"G # # # G : # - - 6 & & X @ + + o Z K K : K [ - u O O 0 - s u.6 s > > > M o + + s s M - : s ; ; - 8 $ $ X X 8 8 8 - 6 [ ; + 6 8 ",
"G X X X ! # - - - - * - O & # # o # & ; : F K s u @ @ - + s s M M = > > 8 X 6 u s - O u s s ; - $ $ $ - @ @ 6 u : 6 & & s s 6 8 ",
",.X X O 6.G - - ; ; 6 u H - & & o B B B K ; K u 3.@ @ u + + + = = = = u + + u 0 u u u u u M : 8 # X + = @ @ = : = & & s s s 8 8 ",
"8 ,.,.G o O O ; ; - [ q.q.u u - o # # # B Q # 8 8 8 8 - - - - u = M + O u u u u # -.-.u M M s ; X - : : : M ; > = ( 6 s s 8 8 6 ",
"8 ,.8 @ - u.- ; ; 6 u q.q.u u u # u.u.o X G : M [ 6 8 + = : : - - O - O + s s s u o ,.[ s s s u X u M > : ` ; > ( ( 6 6 8 8 u u ",
"8 8 8 s - - u u u u u @.u u u - u.p.p.u.X K > M [ + o + : : : : & O O ; s s s s : O X q.q.- - - 6 6 ; > ; ; ; s 3.@ @ 8.u s s s ",
"8.8.3.[ 0.0.P O O u u s s s 8 # u.a.a.u.X K : M [ [ 6 u ; ; + + X # - # s s s s u 8 X q.q.- - # X o 6 M > M [ 8 u.@ @ O u s s s ",
"8.8 u u [ ( ; = # 8 u u u # -.# # u.u.# X # : M s -.8 8 u + + # # # # o 6 t.u + 6 $ # # # # # # # o 8 6 6 6 6 8 8 8 8 O s u s - ",
"8.8 u u U = g s # 6 s u + # -.6 & # # X # G _ u u ,.8 6 - s ; - # # # : t.s.t.+ u 0 0 0 6 8 # - B > - - B # # # # # # K P ( [ + ",
"8.X + @ @ : > M = s 6 s + -.[ [ s - # o # G ( u u u -.q.q.s ; ; - # : : : t.- : s u 0 0 0 6 u - + > - - Z - - - - - & Z : > - s ",
"8.8 * @ @ P : M M [ -.-.@ @ s s s [ -.8 8 8 ( : s u 6 q.q.- s ; - # : ; - = - - s u u u # 6 u u # Z - & U ; + - Z Z F F = - u s ",
"8 8.Q G : : ; ; : - # z @ @ O s s u O Q 8 8 8 s # 8 6 -.s s - u 6 $ - ; ; - ; - + @.@.u # u u u # Z ; & U Z + + + - ; ; = 6 u u ",
"8 8.# X - - - - - # # l # - O O # u O 6 6 6 6 6 ( 8 8 6 u u u O $ X # - - - - = + O Z Z + & # ; ; > = + : : + + # # - & - & - - ",
"8 8 # # X o - - # # # # # @ O - - 6 o 6 6 6 6 @ @ 8 8 8 8 8 8 8 X X X # # @ @ @ @ X X # O # # # + - @ @ @ + + + - & O O - - - # "
};
