/* XPM */
static char *result[] = {
/* columns rows colors chars-per-pixel */
"64 64 21 1 ",
"  c #184D15",
". c #1A7A14",
"X c #257721",
"o c #7D691A",
"O c #AB0000",
"+ c #B50000",
"@ c #802626",
"# c #8F2424",
"$ c #AC3232",
"% c red",
"& c #FF4F4F",
"* c #F45858",
"= c #1C8A16",
"- c #63BF32",
"; c #72D93B",
": c #CCAD2F",
"> c #FAD637",
", c #B8F56E",
"< c gray60",
"1 c gray80",
"2 c #498a4c",
/* pixels */
"2222222222222222222222222222222222222222222222222222222222222222",
"2222222222222222222222222222222222222222222222222222222222222222",
"2222222222222222222222222222222222222222222222222222222222222222",
"2222222222222222222222222222222222222222222222222222222222222222",
"2222222222222222222222222222222222222222222222222222222222222222",
"2222222222222222222222222222222222222222222222222222222222222222",
"2222222222222222222222222222222222222222222222222222222222222222",
"2222222222222222222222222222222222222222222222222222222222222222",
"2222222222222222222222222222222222222222222222222222222222222222",
"222222222222222222222222222222#22oo22222222222222222222222222222",
"222222222222222222222222222:2#o#o>>o2o22222222222222222222222222",
"222222222222222222222222222>#ooo>>>>o:22222222222222222222222222",
"222222222222222222222222222>:oo>&&$$o$22222222222222222222222222",
"222222222222222222222222222$::>>&$$@>@22222222222222222222222222",
"222222222222222222222222222@::>>$$$@>:22222222222222222222222222",
"222222222222222222222222222>::>>$@@@>:22222222222222222222222222",
"222222222222222222222222222>::>>>>>>>:22222222222222222222222222",
"2222222222222222222222222222:::>>>>>>222222222222222222222222222",
"2222222222222222222222222222222222222222222222222222222222222222",
"222222222222222222222222222==.......=222222222222222222222222222",
"2222222222222222222222=====...........====2222222222222222222222",
"2222222222222222222=======.............======2222222222222222222",
"22222222222222222=====,,,,.............,,,,,===22222222222222222",
"222222222222222====,,,,,,,,...........,,,,,,,,,==222222222222222",
"22222222222222===,,,,,,,,,,,,.......,,,,,,,,,,,,,==2222222222222",
"2222222222222==,, ,,,,,,;;;;;;;;;;;;;;;;;;,,,, ,,,==222222222222",
"222222222222==,,   ,,;;;;;;;;;;;;;;;;;;;;;;;;   ,,,==22222222222",
"22222222222==,,,  < ;;;;;;;;;;;;;;;;;;;;;;;; <  ;,,,==2222222222",
"2222222222==,,,  1<  ;;;;;;------------;;;;  <1  ;,,,==222222222",
"222222222==,,;; 11<<  ;;------------------  <<11 ;;,,,==22222222",
"22222222==,,;;; 11OOO  ------------------  OO+11 ;;;,,,==2222222",
"22222222==,;;;; 1O%%%O  ----------------  O%%%+1 -;;;,,==2222222",
"2222222==;;;;;- +%%%%%O  --------------  O%%%%%+ --;;;,,==222222",
"222222==;;;;;--  %%%%%%O  ------------  O%%%%%%  ---;;;,,==22222",
"222222==;;;;----  %%%*%%  ------------  %%*%%%  -----;;;,==22222",
"222222==;;;------  %%*%%  ------------  %%*%%  -------;;;==22222",
"22222==;;;--------        ------------        ---------;;;==2222",
"22222==;;---,,------------------------------------------;;==2222",
"22222==;---,,,,-------------X------X---------------------;==2222",
"22222==----,,,,-------------XX----XX----------------------==2222",
"22222==-----,,----------------XXXX------------------------==2222",
"22222==---------------------------------------------------==2222",
"22222==---------------------------------------------------==2222",
"22222==---,-----------------------------------------------==2222",
"22222==--,,,----------------------------------------------==2222",
"22222==---,-----------------------------------------------==2222",
"222222==-------------------------------------------------==22222",
"222222==---------------.....................-------------==22222",
"222222===--------.................................-------==22222",
"2222222==-----.......................................---==222222",
"22222222==---.........................................-==2222222",
"22222222===--.........................................-==2222222",
"222222222===--.......................................-==22222222",
"2222222222===----.................................---==222222222",
"22222222222===--------------------------------------==2222222222",
"222222222222=========================================22222222222",
"2222222222222======================================2222222222222",
"2222222222222222222222222222222222222222222222222222222222222222",
"2222222222222222222222222222222222222222222222222222222222222222",
"2222222222222222222222222222222222222222222222222222222222222222",
"2222222222222222222222222222222222222222222222222222222222222222",
"2222222222222222222222222222222222222222222222222222222222222222",
"2222222222222222222222222222222222222222222222222222222222222222",
"2222222222222222222222222222222222222222222222222222222222222222"
};
