/* XPM */
static char *_165c547c8de4e7ab51aa3f0b2b35fb4X3mYmigVSvU0ZNXx[] = {
/* columns rows colors chars-per-pixel */
"64 64 11 1 ",
"  c #4A3324",
". c #634728",
"X c #694737",
"o c #6F4C3A",
"O c #8C643E",
"+ c #976935",
"@ c #805843",
"# c #946A41",
"$ c #AB7B4B",
"% c #B6844B",
"& c #CC9858",
/* pixels */
"&$$O$$.$$$O$.$@.+$$$O$$.$$O$$.@.&$$O$.O$$$$.$$@.&$$.$$$$O$$.$$$@",
"&$O$$$.$$$O$.$@.+$$$O$$.$$O$$.@.&$$O$.$O$$$.$$@.&$.$$$$O$$.$$$$@",
"&$O$$$.$$$O$.$@.&.$$O$$.$$O$$.@.&$O$.$$O$$$.$$@.&$.$$$O$$$.$$$$X",
"&$O$$$.$$$O$$.@.&.$$O$$.$$O$$.@.&$O$.$$O$$$.$$@.&$.$$$O$$.$$$$O@",
"&$O$$.$$$$O$$.@.&.$$O$$.$$O$$.@.&$O$.$$#$$$$.$@.&.$$$O$$$.$$$O$@",
"&O$$$.$$$$O$$.@.&.$$O$$.$$O$$$ .&$O$.$$$O$$$.$@.&.$$$O$$$.$$$O$@",
"&O$$$.$$$$$O$.@.&.$$O$$.$$O$$$ .&$O$.$$$O$$$.$@.&.$$$O$$.$$$O$$ ",
"&O$$.$$$$$$O$.@.&.$O$$$.$$$O$$ .&$$$$.$$O$$$.$@.&.$$O$$$.$$O$$$ ",
"%$$$.$$$$$$O$.@.&.$O$$$.$$$O$$@.&O$$$.$$O$$$.$@.&.$$O$$.$$$O$$.@",
"%$$.$$$$$$O$$.@.&.$O$$$.$$$O$$@.&O$$$.$$O$$$$.@.&.$$O$$.$$O$$$.@",
"%$$.$$$$$$O$$.@.&.$O$$$.$$$$O$@.&O$$$.$$$O$$$.@.&.$O$$.$$O$$$.$@",
"&$$.$$.$$$O$$.@.&.$O$$$.$$$$O$@.%$$$.$$$$O$$$.@.&.$O$$.$$O$$.$$@",
"&$$.$$.$$$O$$.@.+$$O$$$.$$$$$O@.%$$$.$$$$O$$$$ .&.$O$$.$O$$$.$$X",
"&$.$$$.$$$O$$$ .+$$O$$$.$$$$$O@.&$$$.$$$$O$$$$ .&.$O$.$$O$$.$$$X",
"&$.$$$.$$$O$$$ .&$$O$$.$$$$$$O@.&$$$.$$$$$O$$$ .&$O$$$$O$$.$$$O@",
"&$.$$.$$$$O$$$ .&$$O$$.$$$$$$O@.&$$.$$$$$$O$$$@.&$O$$$$O$$.$$$O@",
"%$$.$.$$$$O$$$ .&$$O$$.$$$$$$$o.&$$.$$$$$$$O$$@.&$O$$$O$$.$$$O$@",
"%$$$.$$$$$O$$$ .&$$O$$.$$$O$$$X.&$.$$$$$$$$O$$@.&$O$$$O$$.$$O$$ ",
"&O$$$$$$$$O$$$ .&$$O$$.$$$O$$$X.&.$$$$$$$$$O$$@.&$O$$O$$$.$$O$.@",
"&O$$$$$$$$O$$$@.&$$O$$.$$$O$$$X.&.$$$$$$$$$$O$@.&$O$$O$$.$$O$$.@",
"&O$$$$$.$$O$$.@.&$$O$.$$$$O$$$@.+$$$$...$$$$O$@.&O$$$O$$.$$O$.$@",
"&$O$$$$.$$O$$.@.&$O$$.$$$$O$$$@.&$$$$$$$.$$$O$@.&O$$O$$.$$O$$.$@",
"&$O$$$.$$O$$$.@.&$O$$$$$$O$$$$@.&$$$$$$$$.$$O$@.&O$$O$$.$$O$$.$@",
"&$O$$$.$$O$$$.@.&$O$$$$$$O$$$$@.&$$$$$O$$$.$O$@.&O$$O$$.$$O$.$$@",
"&$O$$.$$$O$$.$@.&$O$$$.$$O$$$$@.&$$.$O$O$$.$O$@.&O$O$$$.$O$$.$$@",
"&$O$$.$$$O$$.$@.&$O$$$.$$O$$$$X.&$.$$O$O$$.$O$@.&O$O$$$.$O$$.$$@",
"&$$O$.$$$O$$.$@.&$O$$$.$$O$.$$X.&$.$$O$O$$.$O$@.&O$O$$.$$O$.$$$@",
"&$$O$.$$$O$$.$@.&$O$$$.$$O$.$$X.&$.$$$$$$$.$O$@.&O$O$$.$$O$.$$$@",
"&$$O$.$$$O$$.$@.&$$$.$.$$O$.$$X.&$.$$$$$$.$$O$@.%$$O$$.$O$$.$$$X",
"&$$O$.$$$O$$.$@.&$$$.$.$$O$.$$X.%$$.$$.$$.$O$$@.%$$O$$.$O$.$$$O@",
"&$$O$.$$$O$.$O@.&$$$.$.$$O$.$$X.%$$.$$.$$.$O$$@.&$$O$$.$O$.$$O$@",
"&$$O$.$$O$$.$O@.&$$$.$.$$O$.$O@.%$$.$$$..$$O$$@.&$$O$$.$O$.$$O$@",
"&$$$O$$$O$$.$O@.&$$$.$.$O$$.$O@.&O$.$$$$$$$O$.@.&$O$$.$$O$.$$O$@",
"+$$$O$$$O$$.$O@.&$$$$.$$O$$.$O@.&O$$.$$$$$O$$$ .&$O$$.$$O$.$$$O@",
"+$$$O$$$O$$.$O@.&$$$$$$$O$.$$O@.&O$$.$$$$$O$$$ .&$O$$.$O$$.$$$$X",
"+$$$O$$$O$$.$O@.&$$OO$$$O$.$$O@.&O$$.$$$OO$$$$ .&$O$$.$O$$.$$$$@",
"+$$$O$$$O$$.$O@.&$O$$O$$O$.$$O@.&O$$$.$$$$$$$$ .&$O$$.$O$$.$$$$ ",
"+$$$O$$$O$.$$O@.&$O$$O$$O$.$O$@.&$$$$.$$$$O$$$@.&$O$$.$$O$.$$$.@",
"+$$$O$$$O$.$$O@.&$O$$O$$O$.$O$@.&$$$$.$$.$$O$$@.&#$$$.$$O$.$$$.@",
"+$$$O$$O$$.$$$X.&$$$$O$$O$.$O$@.&$$$$.$$.$$O$$@.&#$$$.$$O$$.$$$@",
"+$$$O$$O$$$$$$X.&$$$O$$$O$.$O$@.&$$$$.$$.$$O$$@.&#$$$.$$O$$.$$$@",
"+$$$O$$O$$$$$$X.&$$$O$$O$$.$O$@.%O$$$$.$$.$O$$@.&#$$$.$$O$$$.$$@",
"+$$$O$$O$$$$$$X.&$$$O$$O$$.$O$@.&$O$$$.$$.$O$$@.%$$$$.$$O$$$.$$@",
"+$$$O$$O$$$.$$@.&$$$O$$O$$.$O$@.&$$O$$.$$.$$O$@.%$$$$.$$O$$$$..@",
"+$$$O$$O$$.$.$@.&$$O$$$O$$.$O$@.&$$O$$.$$.$$O$@.%$$$$$$$$O$$$$$ ",
"+$$$O$$O$$.$.$@.&$$O$$$O$$.$O$@.&$$O$$$.$.$$O$@.%$$$$$$$$O$$$$$@",
"+$$$O$$O$$.$.$@.&$O$$$$O$$.$O$@.&$$O$$$.$$.$O$@.&$$$OO$$$$O$$$$@",
"+$$$O$$O$$$$.$@.&$O$$$$O$$.$O$@.&$$O$$$.$$.$$O@.&$$O$$O$$$O$$$$@",
"+$$$O$$O$$$$.$@.&$O$$$$O$$.$O$@.&$$O$$$.$$.$$O@.&$$O$$O$$$$O$$$@",
"+$$O$$$O$$$$.$@.&$O$$$$O$$.$O$@.&$$O$$$.$$.$$O@.&$$$O$$O$$$$O$$@",
"+$$O$$$O$$$$.$@.&$O$$$O$$$.$O$@.&$$O$$$.$$.$$O@.&$$$O$$$O$$$$OOX",
"&.$O$$$O$$$.$$@.&O$$$$O$$$.$O$@.&$$O$$$.$$.$$O@.+$$$$$$$$#$$$$$@",
"&.$O$$$O$$$.$$@.&O$$$$O$$$.$O$@.&$$O$$$.$$.$$$X.&.$$$$$$$O$$$$$@",
"&.$O$$$O$$.$$$o.&O$$$$O$$$.$O$@.&$O$$.$.$$.$$$X.&$.$$$$$$$O$$$$X",
"&.$O$$$O$$.$$$X.&O$$$$O$$$.$O$@.&$O$$.$$.$$.$$X.&$$.$$$$$$$OOOO@",
"&.$$O$$O$$.$$$X.&O$$$$O$$$.$$O@.&$O$$.$$.$$.$$X.%$$$..$$$$$$$$$@",
"&.$$O$$O$$.$$#@.&O$$$$O$$$$.$O@.&$O$$.$$.$$.$$X.%$$$$$.$$$$$$$$@",
"&$.$O$$O$.$$$O@.&O$$$$O$$$$.$O@.&$O$$.$$.$$.$$@.&O$$$$$.$$$$$$$@",
"&$.$O$$O$.$$$O@.&O$$$$O$$$$.$O@.&$$O$.$$.$$.$$@.&O$$$$$$.$$$$$$@",
"&$.$O$$O$$.$$O@.&O$$$$O$$$$.$O@.&$$O$$.$.$$.$$@.&O$$$$$$$.$$$$$@",
"&$.$O$$O$$.$$O@.&$O$$O$$$$$.$O@.&$$O$$.$.$$.$$@.&$O$$$$$$$.$$$$@",
"&$.$O$$O$$.$$O@.&$O$$O$$$$$.$O@.&$$O$$.$.$$$.$@.&$O$$$$$$$.$$$$@",
"&$$.$O$O$$.$$O@.&$O$$O$$$$$.$O@.&$$O$$.$$.$$.$@.&$O$$$$$$$$.$$$@",
"&$$.$O$$O$$.$O@.&$$O$O$$$$$.$$X.&$$O$$$.$.$$$$@.&$O$$$$$$$$$.$$@"
};
